#!OML:ASF G:\JayActor3\Patient Classification 1\Patient 1\Session 6\male.ASF
:FULLY-SPECIFIED
:DEGREES
746
root -9.25313 16.1833 12.4382 -364.225 -73.1412 -1.63211
lowerback -1.46175 0.955583 9.25524
upperback 0.591257 1.01095 1.96883
thorax 1.56603 0.565362 -3.11326
lowerneck 7.21112 -14.838 -6.28373
upperneck 0.421047 -20.2971 6.36693
head 0.302252 -10.2713 3.21657
rclavicle -5.66536e-015 1.59028e-015
rhumerus 14.3347 32.5986 -74.2837
rradius 82.4076
rwrist -56.6359
rhand 1.78189 -10.1979
rfingers 7.12502
rthumb 27.296 -38.2421
lclavicle -5.66536e-015 1.59028e-015
lhumerus -60.5577 0.635943 65.2002
lradius 48.8511
lwrist 56.9919
lhand -27.779 9.45893
lfingers 7.12502
lthumb -1.1725 39.4355
rfemur 10.4496 -3.63267 33.446
rtibia 41.1496
rfoot -2.82615 -2.91462
rtoes 1.5198
lfemur -19.7391 1.5292 -13.0776
ltibia 27.8423
lfoot -1.09509 -11.5025
ltoes -10.6458
747
root -9.44836 16.1901 12.5116 -365.476 -74.1759 -0.319897
lowerback -1.38306 0.983415 8.77347
upperback 0.519889 1.07552 1.91074
thorax 1.44588 0.587991 -2.90649
lowerneck 7.24828 -14.7325 -6.15613
upperneck 0.175045 -20.1356 6.34049
head 0.188643 -10.1893 3.21224
rclavicle -6.95746e-016 -1.11319e-014
rhumerus 14.1767 32.6292 -74.4277
rradius 82.1162
rwrist -56.8349
rhand 1.74697 -10.1885
rfingers 7.12502
rthumb 27.2626 -38.2379
lclavicle -6.95746e-016 -1.11319e-014
lhumerus -60.7353 0.573805 65.0228
lradius 48.9573
lwrist 57.202
lhand -27.7194 9.34964
lfingers 7.12502
lthumb -1.11488 39.3265
rfemur 8.71176 -3.4158 32.7863
rtibia 44.9313
rfoot -0.47868 -4.10856
rtoes 2.46267
lfemur -18.6178 1.74293 -13.2607
ltibia 27.7623
lfoot -2.40299 -11.442
ltoes -11.5869
748
root -9.6419 16.1986 12.5788 -367.374 -75.2118 1.68013
lowerback -1.27476 1.0102 8.11751
upperback 0.440655 1.14557 1.82921
thorax 1.29755 0.612201 -2.6277
lowerneck 7.26549 -14.6197 -6.01746
upperneck -0.0923651 -19.9614 6.31282
head 0.0696844 -10.1004 3.20529
rclavicle 4.00551e-014 2.8625e-014
rhumerus 14.0778 32.6902 -74.529
rradius 81.8172
rwrist -57.0501
rhand 1.67776 -10.1802
rfingers 7.12502
rthumb 27.1964 -38.24
lclavicle 4.00551e-014 2.8625e-014
lhumerus -60.8319 0.58365 64.7912
lradius 48.9763
lwrist 57.3123
lhand -27.6173 9.23128
lfingers 7.12502
lthumb -1.01633 39.2086
rfemur 6.78352 -3.08662 32.061
rtibia 48.8304
rfoot 1.82937 -5.62042
rtoes 3.82606
lfemur -17.4775 2.21517 -13.5892
ltibia 27.5315
lfoot -3.41913 -11.5106
ltoes -11.8407
749
root -9.8329 16.2079 12.6406 -370.089 -76.1804 4.5226
lowerback -1.13937 1.02424 7.30874
upperback 0.359775 1.20303 1.70693
thorax 1.12771 0.630366 -2.30667
lowerneck 7.28105 -14.5022 -5.87304
upperneck -0.397377 -19.7784 6.30346
head -0.0598831 -10.0073 3.205
rclavicle -2.72335e-014 3.49861e-014
rhumerus 14.027 32.7545 -74.6081
rradius 81.5158
rwrist -57.2601
rhand 1.57961 -10.1698
rfingers 7.12502
rthumb 27.1025 -38.2442
lclavicle -2.72335e-014 3.49861e-014
lhumerus -60.8525 0.606789 64.5231
lradius 48.9395
lwrist 57.3348
lhand -27.4776 9.11749
lfingers 7.12502
lthumb -0.88138 39.0954
rfemur 4.71791 -2.70145 31.2437
rtibia 52.7556
rfoot 3.95046 -7.42136
rtoes 5.07421
lfemur -16.3043 2.91802 -14.0895
ltibia 27.1653
lfoot -4.23639 -11.6777
ltoes -11.7789
750
root -10.0212 16.2172 12.6991 -373.741 -77.0127 8.31421
lowerback -0.987588 1.01736 6.37891
upperback 0.281739 1.23333 1.53161
thorax 0.947153 0.636372 -1.97322
lowerneck 7.30484 -14.3782 -5.7267
upperneck -0.739882 -19.5852 6.31859
head -0.200812 -9.90953 3.21479
rclavicle -2.08724e-015 6.36111e-015
rhumerus 13.9998 32.8033 -74.6842
rradius 81.2205
rwrist -57.4265
rhand 1.45443 -10.1544
rfingers 7.12502
rthumb 26.9827 -38.2474
lclavicle -2.08724e-015 6.36111e-015
lhumerus -60.7986 0.610477 64.2283
lradius 48.8657
lwrist 57.2949
lhand -27.3111 9.01408
lfingers 7.12502
lthumb -0.720551 38.9926
rfemur 2.57523 -2.33764 30.3036
rtibia 56.6206
rfoot 5.66975 -9.25972
rtoes 5.83805
lfemur -15.0918 3.76203 -14.7694
ltibia 26.6723
lfoot -4.89635 -11.8615
ltoes -11.334
751
root -10.2072 16.2261 12.7557 -378.36 -77.664 13.0657
lowerback -0.834634 0.987427 5.35845
upperback 0.22094 1.22948 1.2987
thorax 0.780577 0.627832 -1.6479
lowerneck 7.35624 -14.2488 -5.58299
upperneck -1.14109 -19.3833 6.37235
head -0.361353 -9.80856 3.24274
rclavicle 4.01545e-014 4.45278e-014
rhumerus 14.0017 32.8209 -74.7644
rradius 80.9292
rwrist -57.5387
rhand 1.33722 -10.1251
rfingers 7.12502
rthumb 26.8706 -38.2355
lclavicle 4.01545e-014 4.45278e-014
lhumerus -60.6541 0.596235 63.9017
lradius 48.7517
lwrist 57.2035
lhand -27.1307 8.91028
lfingers 7.12502
lthumb -0.54628 38.8893
rfemur 0.405077 -2.03362 29.2282
rtibia 60.3566
rfoot 6.82959 -10.9171
rtoes 5.96286
lfemur -13.8279 4.67733 -15.6175
ltibia 26.0633
lfoot -5.42153 -12.0613
ltoes -10.6582
